<mxfile host="app.diagrams.net" modified="2024-04-26T11:45:53.899Z" agent="Mozilla/5.0 (X11; Linux x86_64) AppleWebKit/537.36 (KHTML, like Gecko) Chrome/124.0.0.0 Safari/537.36" etag="cjCxPEN1J26F0QCRb9CC" version="24.3.0" type="github">
  <diagram name="Page-1" id="amzALCv6bI6qjFAQoZQV">
    <mxGraphModel dx="2203" dy="879" grid="1" gridSize="10" guides="1" tooltips="1" connect="1" arrows="1" fold="1" page="1" pageScale="1" pageWidth="827" pageHeight="1169" math="0" shadow="0">
      <root>
        <mxCell id="0" />
        <mxCell id="1" parent="0" />
        <mxCell id="rOSCQlMySwnuyHpSkQuA-8" style="rounded=0;orthogonalLoop=1;jettySize=auto;html=1;exitX=0.5;exitY=0;exitDx=0;exitDy=0;entryX=0.5;entryY=1;entryDx=0;entryDy=0;fontSize=15;fontFamily=Times New Roman;" parent="1" source="rOSCQlMySwnuyHpSkQuA-1" target="rOSCQlMySwnuyHpSkQuA-2" edge="1">
          <mxGeometry relative="1" as="geometry" />
        </mxCell>
        <mxCell id="rOSCQlMySwnuyHpSkQuA-1" value="MLighter" style="rounded=0;whiteSpace=wrap;html=1;align=left;verticalAlign=top;fontSize=15;fontFamily=Times New Roman;" parent="1" vertex="1">
          <mxGeometry x="-160" y="220" width="340" height="490" as="geometry" />
        </mxCell>
        <mxCell id="rOSCQlMySwnuyHpSkQuA-9" style="edgeStyle=orthogonalEdgeStyle;rounded=0;orthogonalLoop=1;jettySize=auto;html=1;exitX=1;exitY=0.5;exitDx=0;exitDy=0;entryX=0;entryY=0.5;entryDx=0;entryDy=0;fontSize=15;fontFamily=Times New Roman;" parent="1" source="rOSCQlMySwnuyHpSkQuA-2" target="rOSCQlMySwnuyHpSkQuA-3" edge="1">
          <mxGeometry relative="1" as="geometry" />
        </mxCell>
        <mxCell id="rOSCQlMySwnuyHpSkQuA-28" value="generates" style="edgeLabel;html=1;align=center;verticalAlign=middle;resizable=0;points=[];fontSize=15;fontFamily=Times New Roman;rounded=0;" parent="rOSCQlMySwnuyHpSkQuA-9" vertex="1" connectable="0">
          <mxGeometry x="-0.3275" y="3" relative="1" as="geometry">
            <mxPoint as="offset" />
          </mxGeometry>
        </mxCell>
        <mxCell id="rOSCQlMySwnuyHpSkQuA-2" value="Template Generator&lt;br style=&quot;font-size: 15px;&quot;&gt;(Python and R)" style="rounded=0;whiteSpace=wrap;html=1;fontSize=15;fontFamily=Times New Roman;" parent="1" vertex="1">
          <mxGeometry x="-50" y="91" width="120" height="60" as="geometry" />
        </mxCell>
        <mxCell id="qQm7wBDShYCSOg0t25lE-7" style="rounded=0;orthogonalLoop=1;jettySize=auto;html=1;exitX=0;exitY=1;exitDx=0;exitDy=0;entryX=0.75;entryY=0;entryDx=0;entryDy=0;" edge="1" parent="1" source="rOSCQlMySwnuyHpSkQuA-3" target="rOSCQlMySwnuyHpSkQuA-7">
          <mxGeometry relative="1" as="geometry" />
        </mxCell>
        <mxCell id="rOSCQlMySwnuyHpSkQuA-3" value="Different Templates" style="rounded=0;whiteSpace=wrap;html=1;fontSize=15;fontFamily=Times New Roman;" parent="1" vertex="1">
          <mxGeometry x="180" y="86" width="120" height="70" as="geometry" />
        </mxCell>
        <mxCell id="rOSCQlMySwnuyHpSkQuA-32" style="rounded=0;orthogonalLoop=1;jettySize=auto;html=1;exitX=1;exitY=0.5;exitDx=0;exitDy=0;entryX=0;entryY=0.5;entryDx=0;entryDy=0;fontSize=15;fontFamily=Times New Roman;" parent="1" source="rOSCQlMySwnuyHpSkQuA-5" target="rOSCQlMySwnuyHpSkQuA-31" edge="1">
          <mxGeometry relative="1" as="geometry" />
        </mxCell>
        <mxCell id="qQm7wBDShYCSOg0t25lE-2" style="rounded=0;orthogonalLoop=1;jettySize=auto;html=1;exitX=1;exitY=0;exitDx=0;exitDy=0;" edge="1" parent="1" source="rOSCQlMySwnuyHpSkQuA-5" target="rOSCQlMySwnuyHpSkQuA-3">
          <mxGeometry relative="1" as="geometry" />
        </mxCell>
        <mxCell id="rOSCQlMySwnuyHpSkQuA-5" value="Fuzzers" style="ellipse;whiteSpace=wrap;html=1;fontSize=15;fontFamily=Times New Roman;rounded=0;" parent="1" vertex="1">
          <mxGeometry x="-60" y="380" width="120" height="80" as="geometry" />
        </mxCell>
        <mxCell id="rOSCQlMySwnuyHpSkQuA-14" style="rounded=0;orthogonalLoop=1;jettySize=auto;html=1;exitX=1;exitY=0.5;exitDx=0;exitDy=0;fontSize=15;fontFamily=Times New Roman;" parent="1" source="rOSCQlMySwnuyHpSkQuA-6" edge="1">
          <mxGeometry relative="1" as="geometry">
            <mxPoint x="-60" y="420" as="targetPoint" />
          </mxGeometry>
        </mxCell>
        <mxCell id="rOSCQlMySwnuyHpSkQuA-6" value="Input Seeds" style="text;html=1;align=center;verticalAlign=middle;whiteSpace=wrap;rounded=0;fontSize=15;fontFamily=Times New Roman;" parent="1" vertex="1">
          <mxGeometry x="-140" y="402.5" width="60" height="35" as="geometry" />
        </mxCell>
        <mxCell id="CzA6qbHo2A6-y_BBXeDh-2" style="edgeStyle=orthogonalEdgeStyle;rounded=0;orthogonalLoop=1;jettySize=auto;html=1;exitX=0.5;exitY=1;exitDx=0;exitDy=0;fontSize=15;fontFamily=Times New Roman;" parent="1" source="rOSCQlMySwnuyHpSkQuA-7" target="rOSCQlMySwnuyHpSkQuA-5" edge="1">
          <mxGeometry relative="1" as="geometry" />
        </mxCell>
        <mxCell id="rOSCQlMySwnuyHpSkQuA-7" value="Interpreter&lt;br style=&quot;font-size: 15px;&quot;&gt;(Python and R)" style="rounded=0;whiteSpace=wrap;html=1;fontSize=15;fontFamily=Times New Roman;" parent="1" vertex="1">
          <mxGeometry x="-60" y="275" width="120" height="60" as="geometry" />
        </mxCell>
        <mxCell id="rOSCQlMySwnuyHpSkQuA-15" value="Normal Fuzzing" style="rounded=0;whiteSpace=wrap;html=1;fontSize=15;fontFamily=Times New Roman;" parent="1" vertex="1">
          <mxGeometry x="-145" y="510" width="120" height="60" as="geometry" />
        </mxCell>
        <mxCell id="rOSCQlMySwnuyHpSkQuA-20" value="" style="edgeStyle=orthogonalEdgeStyle;rounded=0;orthogonalLoop=1;jettySize=auto;html=1;fontSize=15;fontFamily=Times New Roman;" parent="1" source="rOSCQlMySwnuyHpSkQuA-16" target="rOSCQlMySwnuyHpSkQuA-19" edge="1">
          <mxGeometry relative="1" as="geometry" />
        </mxCell>
        <mxCell id="rOSCQlMySwnuyHpSkQuA-22" value="" style="edgeStyle=orthogonalEdgeStyle;rounded=0;orthogonalLoop=1;jettySize=auto;html=1;fontSize=15;fontFamily=Times New Roman;" parent="1" source="rOSCQlMySwnuyHpSkQuA-16" target="rOSCQlMySwnuyHpSkQuA-21" edge="1">
          <mxGeometry relative="1" as="geometry" />
        </mxCell>
        <mxCell id="rOSCQlMySwnuyHpSkQuA-16" value="Differential Fuzzing" style="rounded=0;whiteSpace=wrap;html=1;fontSize=15;fontFamily=Times New Roman;" parent="1" vertex="1">
          <mxGeometry x="25" y="510" width="120" height="60" as="geometry" />
        </mxCell>
        <mxCell id="rOSCQlMySwnuyHpSkQuA-17" style="rounded=0;orthogonalLoop=1;jettySize=auto;html=1;exitX=0.5;exitY=0;exitDx=0;exitDy=0;entryX=0.357;entryY=0.973;entryDx=0;entryDy=0;entryPerimeter=0;fontSize=15;fontFamily=Times New Roman;" parent="1" source="rOSCQlMySwnuyHpSkQuA-15" target="rOSCQlMySwnuyHpSkQuA-5" edge="1">
          <mxGeometry relative="1" as="geometry">
            <mxPoint x="376.03999999999996" y="384.64" as="targetPoint" />
          </mxGeometry>
        </mxCell>
        <mxCell id="rOSCQlMySwnuyHpSkQuA-18" style="rounded=0;orthogonalLoop=1;jettySize=auto;html=1;exitX=0.5;exitY=0;exitDx=0;exitDy=0;entryX=0.657;entryY=0.973;entryDx=0;entryDy=0;entryPerimeter=0;fontSize=15;fontFamily=Times New Roman;" parent="1" source="rOSCQlMySwnuyHpSkQuA-16" target="rOSCQlMySwnuyHpSkQuA-5" edge="1">
          <mxGeometry relative="1" as="geometry">
            <mxPoint x="441.55999999999995" y="389.36" as="targetPoint" />
          </mxGeometry>
        </mxCell>
        <mxCell id="rOSCQlMySwnuyHpSkQuA-19" value="Different Python Version" style="rounded=0;whiteSpace=wrap;html=1;fontSize=15;fontFamily=Times New Roman;" parent="1" vertex="1">
          <mxGeometry x="-15" y="635" width="90" height="60" as="geometry" />
        </mxCell>
        <mxCell id="rOSCQlMySwnuyHpSkQuA-21" value="Different R Vesions" style="rounded=0;whiteSpace=wrap;html=1;fontSize=15;fontFamily=Times New Roman;" parent="1" vertex="1">
          <mxGeometry x="75" y="635" width="90" height="60" as="geometry" />
        </mxCell>
        <mxCell id="rOSCQlMySwnuyHpSkQuA-33" style="edgeStyle=orthogonalEdgeStyle;rounded=0;orthogonalLoop=1;jettySize=auto;html=1;exitX=0.5;exitY=0;exitDx=0;exitDy=0;entryX=0.5;entryY=0;entryDx=0;entryDy=0;fontSize=15;fontFamily=Times New Roman;" parent="1" source="rOSCQlMySwnuyHpSkQuA-31" target="rOSCQlMySwnuyHpSkQuA-2" edge="1">
          <mxGeometry relative="1" as="geometry" />
        </mxCell>
        <mxCell id="rOSCQlMySwnuyHpSkQuA-34" value="No" style="edgeLabel;html=1;align=center;verticalAlign=middle;resizable=0;points=[];fontSize=15;fontFamily=Times New Roman;rounded=0;" parent="rOSCQlMySwnuyHpSkQuA-33" vertex="1" connectable="0">
          <mxGeometry x="-0.7586" y="-3" relative="1" as="geometry">
            <mxPoint as="offset" />
          </mxGeometry>
        </mxCell>
        <mxCell id="rOSCQlMySwnuyHpSkQuA-42" style="edgeStyle=orthogonalEdgeStyle;rounded=0;orthogonalLoop=1;jettySize=auto;html=1;exitX=1;exitY=0.5;exitDx=0;exitDy=0;entryX=0;entryY=0.5;entryDx=0;entryDy=0;fontSize=15;fontFamily=Times New Roman;" parent="1" source="rOSCQlMySwnuyHpSkQuA-31" target="ftJMKh0BDE4pn1SkjYPP-3" edge="1">
          <mxGeometry relative="1" as="geometry">
            <mxPoint x="470" y="420" as="targetPoint" />
          </mxGeometry>
        </mxCell>
        <mxCell id="rOSCQlMySwnuyHpSkQuA-43" value="Yes" style="edgeLabel;html=1;align=center;verticalAlign=middle;resizable=0;points=[];fontSize=15;fontFamily=Times New Roman;rounded=0;" parent="rOSCQlMySwnuyHpSkQuA-42" vertex="1" connectable="0">
          <mxGeometry x="0.0259" y="-3" relative="1" as="geometry">
            <mxPoint x="-3" y="-3" as="offset" />
          </mxGeometry>
        </mxCell>
        <mxCell id="rOSCQlMySwnuyHpSkQuA-31" value="&lt;font style=&quot;font-size: 15px;&quot;&gt;Mismatches found?&lt;/font&gt;" style="rhombus;whiteSpace=wrap;html=1;fontSize=15;fontFamily=Times New Roman;rounded=0;" parent="1" vertex="1">
          <mxGeometry x="220" y="342.5" width="220" height="155" as="geometry" />
        </mxCell>
        <mxCell id="ftJMKh0BDE4pn1SkjYPP-8" style="edgeStyle=none;curved=1;rounded=0;orthogonalLoop=1;jettySize=auto;html=1;exitX=1;exitY=0;exitDx=0;exitDy=0;entryX=0;entryY=0.5;entryDx=0;entryDy=0;fontSize=15;startSize=8;endSize=8;fontFamily=Times New Roman;" parent="1" source="ftJMKh0BDE4pn1SkjYPP-3" target="ftJMKh0BDE4pn1SkjYPP-5" edge="1">
          <mxGeometry relative="1" as="geometry" />
        </mxCell>
        <mxCell id="ftJMKh0BDE4pn1SkjYPP-9" style="edgeStyle=none;curved=1;rounded=0;orthogonalLoop=1;jettySize=auto;html=1;exitX=1;exitY=0.5;exitDx=0;exitDy=0;fontSize=15;startSize=8;endSize=8;fontFamily=Times New Roman;" parent="1" source="ftJMKh0BDE4pn1SkjYPP-3" edge="1">
          <mxGeometry relative="1" as="geometry">
            <mxPoint x="650" y="420" as="targetPoint" />
          </mxGeometry>
        </mxCell>
        <mxCell id="ftJMKh0BDE4pn1SkjYPP-10" style="edgeStyle=none;curved=1;rounded=0;orthogonalLoop=1;jettySize=auto;html=1;exitX=1;exitY=1;exitDx=0;exitDy=0;entryX=0;entryY=0.5;entryDx=0;entryDy=0;fontSize=15;startSize=8;endSize=8;fontFamily=Times New Roman;" parent="1" source="ftJMKh0BDE4pn1SkjYPP-3" target="ftJMKh0BDE4pn1SkjYPP-7" edge="1">
          <mxGeometry relative="1" as="geometry" />
        </mxCell>
        <mxCell id="ftJMKh0BDE4pn1SkjYPP-3" value="Triage with Crashwalk" style="rounded=0;whiteSpace=wrap;html=1;fontSize=15;fontFamily=Times New Roman;" parent="1" vertex="1">
          <mxGeometry x="490" y="390" width="130" height="60" as="geometry" />
        </mxCell>
        <mxCell id="ftJMKh0BDE4pn1SkjYPP-5" value="Crashes" style="rounded=0;whiteSpace=wrap;html=1;fontSize=15;fontFamily=Times New Roman;" parent="1" vertex="1">
          <mxGeometry x="651" y="275" width="120" height="60" as="geometry" />
        </mxCell>
        <mxCell id="ftJMKh0BDE4pn1SkjYPP-6" value="Hangs" style="rounded=0;whiteSpace=wrap;html=1;direction=west;fontSize=15;fontFamily=Times New Roman;" parent="1" vertex="1">
          <mxGeometry x="651" y="390" width="120" height="60" as="geometry" />
        </mxCell>
        <mxCell id="ftJMKh0BDE4pn1SkjYPP-7" value="Logical error" style="rounded=0;whiteSpace=wrap;html=1;fontSize=15;fontFamily=Times New Roman;" parent="1" vertex="1">
          <mxGeometry x="651" y="497.5" width="120" height="60" as="geometry" />
        </mxCell>
      </root>
    </mxGraphModel>
  </diagram>
</mxfile>
